<svg xmlns="http://www.w3.org/2000/svg" xmlns:xlink="http://www.w3.org/1999/xlink" width="72.809" height="70" viewBox="0 0 72.809 70"><defs><style>.a,.c{fill:none;stroke:#f10527;stroke-width:2.5px;}.b{clip-path:url(#a);}.c{stroke-linecap:round;stroke-linejoin:round;}</style><clipPath id="a"><rect class="a" width="72.809" height="70"/></clipPath></defs><g class="b" transform="translate(0 0)"><path class="c" d="M67.984,41.071h0a8.763,8.763,0,0,1-8.737,8.737H9.737A8.763,8.763,0,0,1,1,41.071Z" transform="translate(0.456 18.736)"/><path class="c" d="M50.916,21.071H43.635V26.9a23.155,23.155,0,0,1-5.219,14.639,2.72,2.72,0,0,0,1.343.073,17.542,17.542,0,0,0,14.07-17.139v-.485A2.912,2.912,0,0,0,50.916,21.071Z" transform="translate(17.525 9.612)"/><path class="c" d="M58.422,19.071v8.737a23.367,23.367,0,0,1-23.3,23.3H29.3A23.367,23.367,0,0,1,6,27.808V19.071Z" transform="translate(2.737 8.7)"/><path class="c" d="M15.641,36.5A16.053,16.053,0,0,1,10.9,25.07h.291a15.763,15.763,0,0,0,4.657,11.22Z" transform="translate(4.972 11.437)"/><path class="c" d="M24.622,15.769l-.207-.207a5,5,0,0,0,0-7.074,5.294,5.294,0,0,1,0-7.488l.207.207a5,5,0,0,0,0,7.074,5.294,5.294,0,0,1,0,7.488Z" transform="translate(10.43 0.456)"/><path class="c" d="M16.622,17.769l-.207-.207a5,5,0,0,0,0-7.074,5.294,5.294,0,0,1,0-7.488l.207.207a5,5,0,0,0,0,7.074,5.294,5.294,0,0,1,0,7.488Z" transform="translate(6.781 1.369)"/><path class="c" d="M32.622,17.769l-.207-.207a5,5,0,0,0,0-7.074,5.294,5.294,0,0,1,0-7.488l.207.207a5,5,0,0,0,0,7.074,5.294,5.294,0,0,1,0,7.488Z" transform="translate(14.08 1.369)"/></g></svg>