<svg xmlns="http://www.w3.org/2000/svg" xmlns:xlink="http://www.w3.org/1999/xlink" width="58.504" height="70" viewBox="0 0 58.504 70"><defs><style>.a,.c{fill:none;stroke:#f10527;stroke-width:2.5px;}.b{clip-path:url(#a);}.c{stroke-linecap:round;stroke-linejoin:round;}</style><clipPath id="a"><rect class="a" width="58.504" height="70"/></clipPath></defs><g transform="translate(-772 -5586)"><g transform="translate(772 5586)"><g class="b" transform="translate(0 0)"><path class="c" d="M28.971,12.282l-.018-.018L4.042,41.007l7.665,7.665L40.452,23.761l-.018-.016A13.479,13.479,0,0,1,28.971,12.282Z" transform="translate(1.435 4.353)"/><path class="c" d="M26.3,22.941a13.55,13.55,0,0,0,19.162,0L26.3,3.779A13.55,13.55,0,0,0,26.3,22.941Z" transform="translate(7.926 1.341)"/><path class="c" d="M44.418,4.819a13.55,13.55,0,0,0-19.162,0L44.418,23.98A13.55,13.55,0,0,0,44.418,4.819Z" transform="translate(8.965 0.301)"/><path class="c" d="M4.855,41.245,3.9,40.287a2.709,2.709,0,0,1,0-3.832l1.916-1.917L10.6,39.329,8.687,41.245A2.709,2.709,0,0,1,4.855,41.245Z" transform="translate(1.102 12.259)"/><path class="c" d="M9.009,55.589a8.118,8.118,0,0,1-5.759-2.381l-.019-.019a8.154,8.154,0,0,1,0-11.517l1.927-1.925a.025.025,0,0,1,.037,0,.029.029,0,0,1,0,.038L3.268,41.711a8.1,8.1,0,0,0,0,11.44l.019.019a8.091,8.091,0,0,0,11.443,0L28.162,39.738a8.144,8.144,0,0,1,11.516,0l.019.018a8.152,8.152,0,0,1,0,11.517.025.025,0,0,1-.037,0,.026.026,0,0,1,0-.038,8.1,8.1,0,0,0,0-11.44l-.02-.018a8.09,8.09,0,0,0-11.44,0L14.767,53.209A8.12,8.12,0,0,1,9.009,55.589Z" transform="translate(0.302 13.258)"/></g></g></g></svg>