<svg xmlns="http://www.w3.org/2000/svg" xmlns:xlink="http://www.w3.org/1999/xlink" width="70" height="70" viewBox="0 0 70 70"><defs><style>.a,.c{fill:none;stroke:#f10527;stroke-width:2.5px;}.b{clip-path:url(#a);}.c{stroke-linecap:round;stroke-linejoin:round;}.d{clip-path:url(#b);}</style><clipPath id="a"><path class="a" d="M39.011,36.266c-.667.73-3.753,4.112-7.674,8.4a3.052,3.052,0,0,0,1.5-.793l2.9-2.811L54.754,65.834a6.569,6.569,0,0,0,9.058,0,6.1,6.1,0,0,0,0-8.784l-22.28-21.6-.715-.693a8.084,8.084,0,0,0-1.807,1.513M11.83,27.718,23.953,39.475l9.742-8.364a7.975,7.975,0,0,0,1.56-1.753L7.482,2.426c-5.977,5.8-3.169,18,4.348,25.292" transform="translate(-4.249 -2.426)"/></clipPath><clipPath id="b"><rect class="a" width="70" height="70"/></clipPath></defs><g transform="translate(-936 -5743)"><g transform="translate(936 5743)"><g transform="translate(4.249 2.426)"><g class="b"><path class="c" d="M11.83,27.718,28.493,43.877a3.143,3.143,0,0,0,4.348,0l2.9-2.809L54.756,65.833a6.566,6.566,0,0,0,9.055,0,6.1,6.1,0,0,0,0-8.783l-22.277-21.6L7.482,2.425C1.506,8.221,4.313,20.429,11.83,27.718Z" transform="translate(-4.249 -2.426)"/></g></g><g transform="translate(0 0)"><g class="d"><path class="c" d="M31.879,30.182l-9.143,8.093L11.363,26.9C4.309,19.846,1.675,8.034,7.283,2.426l26.06,26.06A7.684,7.684,0,0,1,31.879,30.182Zm28.259,25.1-20.9-20.9-.671-.671a7.684,7.684,0,0,0-1.7,1.464l-7.2,8.133a2.863,2.863,0,0,0,1.409-.769l2.72-2.72L51.64,63.779a6.009,6.009,0,0,0,8.5-8.5Z" transform="translate(1.879 1.073)"/><path class="c" d="M55.777,25.872h0a11.492,11.492,0,0,1-8.156,3.359c-5.269,0-7.32.531-9.317,2.788S11.25,62.581,11.25,62.581a6.009,6.009,0,1,1-8.5-8.5L33.316,27.03c2.257-2,2.788-4.048,2.788-9.317a11.492,11.492,0,0,1,3.359-8.156Z" transform="translate(0.442 4.225)"/><rect class="c" width="17.306" height="0.287" transform="matrix(0.707, -0.707, 0.707, 0.707, 39.802, 13.679)"/><rect class="c" width="17.306" height="0.287" transform="matrix(0.707, -0.707, 0.707, 0.707, 56.118, 29.995)"/><rect class="c" width="17.305" height="0.287" transform="matrix(0.707, -0.707, 0.707, 0.707, 50.679, 24.556)"/><rect class="c" width="17.305" height="0.287" transform="matrix(0.707, -0.707, 0.707, 0.707, 45.241, 19.117)"/></g></g></g></g></svg>