<svg xmlns="http://www.w3.org/2000/svg" xmlns:xlink="http://www.w3.org/1999/xlink" width="75.833" height="70" viewBox="0 0 75.833 70"><defs><style>.a,.c{fill:none;stroke-width:2.25px;}.a{stroke:rgba(0,0,0,0);}.b{clip-path:url(#a);}.c{stroke:#f10527;stroke-linecap:round;stroke-linejoin:round;}</style><clipPath id="a"><rect class="a" width="75.833" height="70"/></clipPath></defs><g transform="translate(-820 -6702)"><g transform="translate(820 6702)"><g class="b"><path class="c" d="M28.708,1C13.406,1,1,11.633,1,24.75A21.244,21.244,0,0,0,5.334,37.469a7.909,7.909,0,0,1-3,10.582,13.19,13.19,0,0,0,12.2-2.918A31.076,31.076,0,0,0,28.708,48.5c15.3,0,27.708-10.634,27.708-23.75S44.011,1,28.708,1Z" transform="translate(0.458 0.458)"/><path class="c" d="M14.229,18.242a.729.729,0,0,1-.516-.214.768.768,0,0,1-.213-.515.7.7,0,0,1,.015-.146,1.648,1.648,0,0,1,.047-.163c.026-.051.055-.1.085-.146l-.006.01s.038-.048.08-.092a.844.844,0,0,1,1.031.016,1.426,1.426,0,0,1,.128.162l.064.213a.7.7,0,0,1,.015.146.753.753,0,0,1-.214.512A.743.743,0,0,1,14.229,18.242Z" transform="translate(6.188 7.704)"/><path class="c" d="M14.229,18.242a.729.729,0,0,1-.516-.214.768.768,0,0,1-.213-.515.7.7,0,0,1,.015-.146,1.648,1.648,0,0,1,.047-.163c.026-.051.055-.1.085-.146l-.006.01s.038-.048.08-.092a.844.844,0,0,1,1.031.016,1.426,1.426,0,0,1,.128.162l.064.213a.7.7,0,0,1,.015.146.753.753,0,0,1-.214.512A.743.743,0,0,1,14.229,18.242Z" transform="translate(14.938 7.704)"/><path class="c" d="M14.229,18.242a.729.729,0,0,1-.516-.214.768.768,0,0,1-.213-.515.7.7,0,0,1,.015-.146,1.648,1.648,0,0,1,.047-.163c.026-.051.055-.1.085-.146l-.006.01s.038-.048.08-.092a.844.844,0,0,1,1.031.016,1.426,1.426,0,0,1,.128.162l.064.213a.7.7,0,0,1,.015.146.753.753,0,0,1-.214.512A.743.743,0,0,1,14.229,18.242Z" transform="translate(23.688 7.704)"/></g><g class="b"><path class="c" d="M62.01,50.1a17.88,17.88,0,0,0,3.65-10.71c0-9.44-7.642-17.334-17.905-19.434C45.58,31.216,34.2,39.81,20.451,39.81c-.483,0-.96-.022-1.436-.042.235,10.872,10.571,19.625,23.311,19.625A26.177,26.177,0,0,0,54.26,56.557a11.109,11.109,0,0,0,10.274,2.457A6.661,6.661,0,0,1,62.01,50.1Z" transform="translate(8.715 9.148)"/><path class="c" d="M41.229,34.234a2.036,2.036,0,0,1-.258-.02l-.182-.124a.773.773,0,0,1-.289-.57.674.674,0,0,1,.015-.144,1.56,1.56,0,0,1,.047-.165c.026-.051.055-.1.085-.146l-.006.012s.038-.05.08-.093l-.006.009s.041-.034.08-.06l.2-.106.238-.035.079.016.2.02.16.108a1.751,1.751,0,0,1,.143.121.8.8,0,0,1,.146.464,1.827,1.827,0,0,1-.085.366c0-.016.006-.023,0-.023a.764.764,0,0,0-.061.095l0-.01s-.034.044-.074.083l-.181.131A.829.829,0,0,1,41.229,34.234Z" transform="translate(18.563 15.029)"/><path class="c" d="M41.229,34.234a2.036,2.036,0,0,1-.258-.02l-.182-.124a.773.773,0,0,1-.289-.57.674.674,0,0,1,.015-.144,1.56,1.56,0,0,1,.047-.165c.026-.051.055-.1.085-.146l-.006.012s.038-.05.08-.093l-.006.009s.041-.034.08-.06l.2-.106.238-.035.079.016.2.02.16.108a1.751,1.751,0,0,1,.143.121.8.8,0,0,1,.146.464,1.827,1.827,0,0,1-.085.366c0-.016.006-.023,0-.023a.764.764,0,0,0-.061.095l0-.01s-.034.044-.074.083l-.181.131A.829.829,0,0,1,41.229,34.234Z" transform="translate(9.813 15.029)"/><path class="c" d="M41.229,34.234a2.036,2.036,0,0,1-.258-.02l-.182-.124a.773.773,0,0,1-.289-.57.674.674,0,0,1,.015-.144,1.56,1.56,0,0,1,.047-.165c.026-.051.055-.1.085-.146l-.006.012s.038-.05.08-.093l-.006.009s.041-.034.08-.06l.2-.106.238-.035.079.016.2.02.16.108a1.751,1.751,0,0,1,.143.121.8.8,0,0,1,.146.464,1.827,1.827,0,0,1-.085.366c0-.016.006-.023,0-.023a.764.764,0,0,0-.061.095l0-.01s-.034.044-.074.083l-.181.131A.829.829,0,0,1,41.229,34.234Z" transform="translate(1.063 15.029)"/></g></g></g></svg>