<svg xmlns="http://www.w3.org/2000/svg" xmlns:xlink="http://www.w3.org/1999/xlink" width="30" height="21.29" viewBox="0 0 30 21.29">
  <defs>
    <clipPath id="clip-path">
      <rect id="Rectangle_105" data-name="Rectangle 105" width="30" height="21.29" fill="#122b43"/>
    </clipPath>
  </defs>
  <g id="Group_151" data-name="Group 151" transform="translate(-323 -3209.383)">
    <g id="Group_150" data-name="Group 150" transform="translate(323 3209.383)">
      <g id="Group_149" data-name="Group 149" transform="translate(0 0)" clip-path="url(#clip-path)">
        <path id="Path_165" data-name="Path 165" d="M15.07,11.777a1.5,1.5,0,0,0,1.971-.015L29.571.176A2.375,2.375,0,0,0,28.683,0H3.412a2.375,2.375,0,0,0-.888.176Z" transform="translate(-1.005 -0.37)" fill="#122b43"/>
        <path id="Path_166" data-name="Path 166" d="M1.223,34.864l0,0h0Z" transform="translate(-0.487 -14.257)" fill="#122b43"/>
        <path id="Path_167" data-name="Path 167" d="M10.383,11.775.214,2.372A2.375,2.375,0,0,0,0,3.352V20.2a2.362,2.362,0,0,0,.214.98Z" transform="translate(0 -1.315)" fill="#122b43"/>
        <path id="Path_168" data-name="Path 168" d="M19.378,20.043,18.25,21.086a3.336,3.336,0,0,1-2.209.836,3.3,3.3,0,0,1-2.181-.821l-1.144-1.058L2.524,29.469a2.36,2.36,0,0,0,.888.175H28.683a2.36,2.36,0,0,0,.888-.175Z" transform="translate(-1.005 -8.354)" fill="#122b43"/>
        <path id="Path_169" data-name="Path 169" d="M48.774,34.866h0l0,0Z" transform="translate(-19.427 -14.257)" fill="#122b43"/>
        <path id="Path_170" data-name="Path 170" d="M32.744,11.775l10.168,9.4a2.361,2.361,0,0,0,.215-.979V3.352a2.385,2.385,0,0,0-.214-.98Z" transform="translate(-13.042 -1.315)" fill="#122b43"/>
      </g>
    </g>
  </g>
</svg>
