<svg xmlns="http://www.w3.org/2000/svg" xmlns:xlink="http://www.w3.org/1999/xlink" width="29.854" height="30" viewBox="0 0 29.854 30">
  <defs>
    <clipPath id="clip-path">
      <rect id="Rectangle_102" data-name="Rectangle 102" width="29.854" height="30" fill="#122b43"/>
    </clipPath>
  </defs>
  <g id="Group_144" data-name="Group 144" transform="translate(-220 -3099)">
    <g id="Group_143" data-name="Group 143" transform="translate(220 3099)">
      <g id="Group_142" data-name="Group 142" clip-path="url(#clip-path)">
        <path id="Path_162" data-name="Path 162" d="M.585,10.1H6.512V30H.585ZM3.512,0a3.585,3.585,0,0,1,0,7.171A3.529,3.529,0,0,1,0,3.585,3.529,3.529,0,0,1,3.512,0m6.512,10.1h5.854v2.78a6.773,6.773,0,0,1,5.634-3h1.61a6.761,6.761,0,0,1,6.732,6.732V30H24V19.244a3.891,3.891,0,0,0-3.878-4.024,4.2,4.2,0,0,0-4.244,4.024V30H10.024Z" fill="#122b43" fill-rule="evenodd"/>
      </g>
    </g>
  </g>
</svg>
