<svg xmlns="http://www.w3.org/2000/svg" xmlns:xlink="http://www.w3.org/1999/xlink" width="225.31" height="50.177" viewBox="0 0 225.31 50.177">
  <defs>
    <clipPath id="clip-path">
      <rect id="Rectangle_3" data-name="Rectangle 3" width="225.31" height="50.177" fill="none"/>
    </clipPath>
  </defs>
  <g id="Group_1" data-name="Group 1" clip-path="url(#clip-path)">
    <path id="Path_1" data-name="Path 1" d="M138.11,84.55h3.874c1.431,0,3.575.414,3.575,2.843a2.471,2.471,0,0,1-2.208,2.475V89.9a2.573,2.573,0,0,1,2.54,2.526c0,2.793-2.507,3.207-3.906,3.207H138.11Zm2.222,4.481h.906c.939,0,2.1-.207,2.1-1.348,0-1.288-1.127-1.38-2.144-1.38h-.856v2.728Zm0,4.859h1.049c1.031,0,2.287-.253,2.287-1.541,0-1.445-1.173-1.666-2.287-1.666h-1.049Z" transform="translate(-74.567 -45.65)" fill="#d9dada"/>
    <path id="Path_2" data-name="Path 2" d="M168.7,99.046h-2.015V97.932h-.032a3.4,3.4,0,0,1-2.682,1.3c-1.937,0-2.779-1.366-2.779-3.207V90.87h2.13v4.366c0,1,.014,2.351,1.38,2.351,1.541,0,1.873-1.666,1.873-2.715v-4H168.7Z" transform="translate(-87.028 -49.062)" fill="#d9dada"/>
    <path id="Path_3" data-name="Path 3" d="M188.913,92.365a5.238,5.238,0,0,0-1.9-.35c-.571,0-1.256.207-1.256.906,0,1.3,3.7.478,3.7,3.428,0,1.9-1.7,2.669-3.428,2.669a9.545,9.545,0,0,1-2.415-.35l.129-1.748a4.641,4.641,0,0,0,2.093.538c.538,0,1.4-.207,1.4-1,0-1.606-3.7-.506-3.7-3.46,0-1.762,1.541-2.54,3.207-2.54a9.822,9.822,0,0,1,2.319.3Z" transform="translate(-99.09 -48.84)" fill="#d9dada"/>
    <path id="Path_4" data-name="Path 4" d="M202.5,83.21h2.13v2.034H202.5Zm0,3.524h2.13V94.91H202.5Z" transform="translate(-109.332 -44.926)" fill="#d9dada"/>
    <path id="Path_5" data-name="Path 5" d="M214.4,90.649h2.015v1.113h.032a3.051,3.051,0,0,1,2.682-1.3c1.937,0,2.779,1.366,2.779,3.207v5.162h-2.126V94.463c0-1-.014-2.351-1.38-2.351-1.541,0-1.873,1.666-1.873,2.715v4H214.4Z" transform="translate(-115.757 -48.84)" fill="#d9dada"/>
    <path id="Path_6" data-name="Path 6" d="M243.831,98.359a5.621,5.621,0,0,1-2.811.649c-2.7,0-4.27-1.555-4.27-4.237,0-2.365,1.256-4.32,3.8-4.32,3.032,0,3.892,2.08,3.892,4.937h-5.654a2.138,2.138,0,0,0,2.333,2.066,5.539,5.539,0,0,0,2.715-.824ZM242.4,93.928c-.064-1.031-.538-1.923-1.73-1.923a1.854,1.854,0,0,0-1.891,1.923Z" transform="translate(-127.824 -48.835)" fill="#d9dada"/>
    <path id="Path_7" data-name="Path 7" d="M263.723,92.365a5.238,5.238,0,0,0-1.9-.35c-.571,0-1.256.207-1.256.906,0,1.3,3.7.478,3.7,3.428,0,1.9-1.7,2.669-3.428,2.669a9.546,9.546,0,0,1-2.415-.35l.129-1.748a4.641,4.641,0,0,0,2.093.538c.538,0,1.4-.207,1.4-1,0-1.606-3.7-.506-3.7-3.46,0-1.762,1.541-2.54,3.207-2.54a9.823,9.823,0,0,1,2.319.3Z" transform="translate(-139.481 -48.84)" fill="#d9dada"/>
    <path id="Path_8" data-name="Path 8" d="M281.453,92.365a5.238,5.238,0,0,0-1.9-.35c-.571,0-1.256.207-1.256.906,0,1.3,3.7.478,3.7,3.428,0,1.9-1.7,2.669-3.428,2.669a9.546,9.546,0,0,1-2.415-.35l.129-1.748a4.641,4.641,0,0,0,2.093.538c.538,0,1.4-.207,1.4-1,0-1.606-3.7-.506-3.7-3.46,0-1.762,1.541-2.54,3.207-2.54a9.823,9.823,0,0,1,2.319.3Z" transform="translate(-149.053 -48.84)" fill="#d9dada"/>
    <rect id="Rectangle_1" data-name="Rectangle 1" width="2.222" height="11.084" transform="translate(141.22 38.9)" fill="#d9dada"/>
    <path id="Path_9" data-name="Path 9" d="M320.015,86.3H316.84V84.55h8.576V86.3h-3.175v9.335h-2.222V86.3Z" transform="translate(-171.066 -45.65)" fill="#d9dada"/>
    <path id="Path_10" data-name="Path 10" d="M358.472,86.357a5.71,5.71,0,0,0-2.254-.478,1.545,1.545,0,0,0-1.748,1.541c0,1.923,4.859,1.113,4.859,4.826,0,2.429-1.923,3.349-4.159,3.349a9.881,9.881,0,0,1-2.843-.428l.207-2a5.331,5.331,0,0,0,2.507.681c.842,0,1.969-.428,1.969-1.431,0-2.112-4.859-1.238-4.859-4.9,0-2.475,1.923-3.382,3.874-3.382a8.444,8.444,0,0,1,2.65.4Z" transform="translate(-190.13 -45.423)" fill="#d9dada"/>
    <path id="Path_11" data-name="Path 11" d="M381.639,99.046h-2.015V97.932h-.032a3.4,3.4,0,0,1-2.682,1.3c-1.937,0-2.779-1.366-2.779-3.207V90.87h2.13v4.366c0,1,.014,2.351,1.38,2.351,1.541,0,1.873-1.666,1.873-2.715v-4h2.13v8.176Z" transform="translate(-201.997 -49.062)" fill="#d9dada"/>
    <path id="Path_12" data-name="Path 12" d="M397.55,90.643h1.983v1.141h.032a2.884,2.884,0,0,1,2.429-1.334,2.383,2.383,0,0,1,2.411,1.445,2.8,2.8,0,0,1,2.558-1.445c2.015,0,2.586,1.38,2.586,3.207v5.162h-2.126V93.947c0-.764,0-1.84-1.224-1.84-1.412,0-1.587,1.684-1.587,2.747v3.971h-2.126V93.947c0-.764,0-1.84-1.224-1.84-1.412,0-1.587,1.684-1.587,2.747v3.971H397.55Z" transform="translate(-214.642 -48.835)" fill="#d9dada"/>
    <path id="Path_13" data-name="Path 13" d="M430.63,90.643h1.983v1.141h.032a2.884,2.884,0,0,1,2.429-1.334,2.383,2.383,0,0,1,2.411,1.445,2.8,2.8,0,0,1,2.558-1.445c2.015,0,2.586,1.38,2.586,3.207v5.162H440.5V93.947c0-.764,0-1.84-1.224-1.84-1.412,0-1.587,1.684-1.587,2.747v3.971h-2.126V93.947c0-.764,0-1.84-1.224-1.84-1.413,0-1.587,1.684-1.587,2.747v3.971H430.63Z" transform="translate(-232.502 -48.835)" fill="#d9dada"/>
    <path id="Path_14" data-name="Path 14" d="M463.87,83.21H466v2.034h-2.13Zm0,3.524H466V94.91h-2.13Z" transform="translate(-250.449 -44.926)" fill="#d9dada"/>
    <path id="Path_15" data-name="Path 15" d="M475.443,89.709H473.87V88.154h1.573V86.521l2.126-.681v2.319h1.891v1.555h-1.891v3.81c0,.7.189,1.348,1,1.348a1.919,1.919,0,0,0,.971-.221l.064,1.684a5.559,5.559,0,0,1-1.573.189,2.4,2.4,0,0,1-2.586-2.65Z" transform="translate(-255.848 -46.346)" fill="#d9dada"/>
    <path id="Path_16" data-name="Path 16" d="M148.935,34.088H137.93V0h4.633V29.961h6.372Z" transform="translate(-74.47)" fill="#072a45"/>
    <rect id="Rectangle_2" data-name="Rectangle 2" width="4.633" height="34.088" transform="translate(79.536)" fill="#072a45"/>
    <path id="Path_17" data-name="Path 17" d="M198.194,21.6V17.47h7.049V34.088H196.17q-5.355,0-5.36-5.747V5.839Q190.81,0,196.17,0h3.184q5.887,0,5.889,5.935v3.7H200.61V6.6q0-2.471-1.978-2.471h-1.159q-2.029,0-2.029,2.471V27.495q0,2.471,2.029,2.471h3.138V21.6Z" transform="translate(-103.02)" fill="#072a45"/>
    <path id="Path_18" data-name="Path 18" d="M239.639,34.088V18.611h-5.7V34.088H229.31V0h4.633V14.479h5.7V0h4.633V34.088Z" transform="translate(-123.807)" fill="#072a45"/>
    <path id="Path_19" data-name="Path 19" d="M277.733,4.132V34.093H273.1V4.132h-4.44V0h13.517V4.132Z" transform="translate(-145.053)" fill="#072a45"/>
    <path id="Path_20" data-name="Path 20" d="M313.079,34.088V18.611h-5.7V34.088H302.75V0h4.633V14.479h5.7V0h4.633V34.088Z" transform="translate(-163.458)" fill="#072a45"/>
    <path id="Path_21" data-name="Path 21" d="M348.739,34.088q-5.6,0-5.6-5.793V5.839Q343.14,0,348.693,0h4.44q5.549,0,5.553,5.839V28.3q0,5.79-5.6,5.793Zm1.113-4.127h2.365q1.836,0,1.836-1.992V6.124c0-1.33-.695-1.992-2.075-1.992h-2.172a1.777,1.777,0,0,0-2.029,1.992v21.84q0,1.994,2.075,2" transform="translate(-185.265)" fill="#072a45"/>
    <path id="Path_22" data-name="Path 22" d="M401.953,0V27.633q0,6.46-5.6,6.455h-3.911q-5.549,0-5.553-6.506V0h4.633V27.73q0,2.229,2.029,2.231h1.882q1.884,0,1.882-2.231V0Z" transform="translate(-208.886)" fill="#072a45"/>
    <path id="Path_23" data-name="Path 23" d="M436.327,9.165V6.174A1.8,1.8,0,0,0,434.3,4.132h-.722A1.777,1.777,0,0,0,431.6,6.174v5.65a1.656,1.656,0,0,0,.386,1.284,10.014,10.014,0,0,0,1.256.856l4.394,2.328a19.885,19.885,0,0,1,2.052,1.261,3.241,3.241,0,0,1,.943,1.09,5.93,5.93,0,0,1,.336,2.443v7.265q0,5.742-5.6,5.747h-2.848q-5.549,0-5.553-6.266V26.124H431.6v1.854q0,1.994,2.075,1.992h.819q1.836,0,1.836-1.992V22.172a1.663,1.663,0,0,0-.386-1.284,10.012,10.012,0,0,0-1.256-.856l-4.394-2.42a13.551,13.551,0,0,1-2.1-1.284,2.963,2.963,0,0,1-.943-1.353,6.689,6.689,0,0,1-.29-2.162V5.839Q426.96,0,432.513,0h2.9q5.549,0,5.553,5.839V9.16h-4.638Z" transform="translate(-230.521)" fill="#072a45"/>
    <path id="Path_24" data-name="Path 24" d="M464.74,34.088V0h11.488V4.132h-6.855V14.484h6.082v4.132h-6.082V29.961h6.855v4.132H464.74Z" transform="translate(-250.918)" fill="#072a45"/>
    <path id="Path_25" data-name="Path 25" d="M51.746,98.7l-2.25.189-.156,4.458h4.739l-.147-4.826Z" transform="translate(-26.639 -53.192)" fill="#072a45"/>
    <path id="Path_26" data-name="Path 26" d="M31.525,15.027l.5,3.575H26.5V12.129h4.624l.377,2.705L50.15,10V.01H0V50.16H13.637l1-7.145,10.472-1.086,10.025-1.04,1.293,9.266H50.15v-30.4Zm-11.6-9.906a16.128,16.128,0,0,1,5.066-.828h.442a19.605,19.605,0,0,1,4.688.676L30.734,9.4H19.328Zm-.975,7.007h4.826V18.6H18.04Zm-1.284,9.2H32.409l.911,6.542-8.213.851-8.6.893Zm7.444,17.851L15.022,40.226l1.09-7.826,8.99-.929,8.59-.888,1.063,7.605Z" transform="translate(0 -0.005)" fill="#072a45"/>
  </g>
</svg>
