<svg id="Group_148" data-name="Group 148" xmlns="http://www.w3.org/2000/svg" xmlns:xlink="http://www.w3.org/1999/xlink" width="30" height="30" viewBox="0 0 30 30">
  <defs>
    <clipPath id="clip-path">
      <rect id="Rectangle_104" data-name="Rectangle 104" width="30" height="30" fill="#122b43"/>
    </clipPath>
  </defs>
  <g id="Group_147" data-name="Group 147" clip-path="url(#clip-path)">
    <path id="Path_164" data-name="Path 164" d="M15,0A15,15,0,1,0,30,15,15.017,15.017,0,0,0,15,0M26.3,9.231a12.581,12.581,0,0,1,1.337,4.615H23.054c-.007-.179-.022-.356-.033-.534-.007-.118-.013-.236-.021-.354q-.059-.818-.162-1.618c-.012-.092-.027-.181-.04-.272q-.1-.726-.243-1.428c-.017-.086-.032-.173-.05-.258-.01-.05-.018-.1-.029-.152Zm-7.2,14.512c-.032.072-.065.144-.1.214-.084.179-.17.351-.258.519-.024.045-.046.093-.07.137-.111.205-.226.4-.343.589-.03.048-.061.092-.092.139q-.135.209-.275.4c-.04.055-.081.108-.122.162-.093.122-.188.237-.284.347-.034.039-.067.08-.1.118-.128.14-.258.271-.39.391-.028.025-.056.046-.084.07-.107.092-.214.178-.323.257-.043.031-.087.061-.131.089-.1.066-.2.126-.3.18-.028.014-.055.03-.082.043V23.077h3.232c-.018.046-.036.09-.054.135q-.109.272-.224.531m-5.645,3.433c-.044-.029-.088-.058-.132-.09-.108-.078-.216-.164-.323-.256-.028-.024-.056-.045-.084-.07-.132-.119-.262-.25-.39-.391-.035-.038-.068-.08-.1-.118-.1-.11-.19-.225-.284-.347l-.121-.162q-.14-.192-.275-.4c-.031-.047-.061-.091-.091-.139q-.177-.281-.343-.589c-.024-.045-.047-.093-.071-.138q-.132-.251-.257-.518c-.033-.071-.066-.143-.1-.215q-.115-.258-.224-.53c-.018-.045-.037-.089-.054-.135h3.232V27.4c-.027-.013-.054-.029-.081-.043-.1-.054-.2-.114-.3-.18M10.892,6.258c.032-.072.065-.144.1-.215q.125-.267.257-.518c.024-.045.047-.093.071-.138q.167-.308.343-.589c.03-.048.061-.092.091-.139q.135-.209.275-.4l.121-.162c.093-.122.188-.237.284-.347.034-.039.068-.08.1-.118.128-.14.258-.271.39-.391.028-.025.056-.046.084-.07.107-.092.214-.178.323-.256.044-.032.088-.061.132-.09.1-.066.2-.126.3-.18.027-.014.054-.03.081-.043V6.923H10.614c.017-.046.036-.09.054-.135q.109-.272.224-.53m5.646-3.434c.044.029.088.058.131.089.108.078.216.164.323.257.028.024.057.045.084.07.132.119.262.25.39.391.034.038.067.08.1.118.1.11.191.225.284.347.041.053.081.107.122.162q.139.192.275.4c.031.047.062.091.092.139.117.187.232.384.343.589.024.044.047.092.07.137.088.168.174.34.258.519.033.07.065.142.1.214q.115.259.224.531c.018.045.036.089.054.135H16.154V2.6c.027.013.054.029.082.043.1.054.2.114.3.18m-.384,17.945V16.154h4.578c-.006.123-.005.247-.012.369-.008.141-.018.281-.028.421-.033.45-.076.9-.133,1.335-.007.06-.012.121-.02.181-.067.492-.151.973-.245,1.446-.025.123-.052.243-.078.364-.037.17-.083.332-.123.5Zm-6.245,0c-.041-.167-.086-.329-.123-.5-.026-.121-.054-.241-.078-.364-.095-.473-.179-.955-.245-1.446-.008-.06-.013-.121-.021-.181-.056-.44-.1-.885-.133-1.335q-.016-.209-.028-.421c-.007-.122-.007-.246-.012-.369h4.577v4.615ZM13.846,9.231v4.615H9.269c.005-.123.005-.247.012-.369q.012-.211.028-.421c.033-.45.077-.9.133-1.335.008-.06.013-.121.021-.181.066-.492.151-.973.245-1.446.024-.123.052-.243.078-.364.037-.17.083-.332.123-.5Zm6.246,0c.04.167.086.329.123.5.027.121.054.241.078.364.095.473.178.955.245,1.446.008.06.013.121.02.181.057.44.1.885.133,1.335.01.14.02.28.028.421.007.122.006.246.012.369H16.154V9.231Zm4.692-2.308h-2.94L21.835,6.9q-.159-.474-.335-.918c-.029-.074-.061-.143-.091-.215-.089-.217-.18-.432-.275-.639-.046-.1-.094-.2-.142-.294-.083-.171-.167-.34-.254-.5-.054-.1-.11-.2-.166-.3q-.128-.226-.261-.439c-.033-.054-.065-.114-.1-.167a12.767,12.767,0,0,1,4.571,3.5m-15-3.5c-.034.053-.065.113-.1.167q-.132.214-.26.439c-.056.1-.112.2-.166.3-.087.163-.171.332-.254.5-.047.1-.1.193-.141.294-.1.207-.186.421-.276.639-.029.072-.061.141-.09.215q-.176.445-.335.918c0,.007-.006.014-.008.021H5.217a12.767,12.767,0,0,1,4.571-3.5M3.7,9.231H7.525c-.011.05-.018.1-.029.152-.018.085-.032.172-.05.258q-.14.7-.243,1.428c-.013.091-.028.18-.04.272q-.1.8-.162,1.618c-.009.118-.015.236-.022.354-.01.178-.025.355-.033.534H2.36A12.592,12.592,0,0,1,3.7,9.231m0,11.538A12.592,12.592,0,0,1,2.36,16.154H6.946c.007.179.023.356.033.534.007.118.013.236.022.354q.058.818.162,1.618c.012.092.027.181.04.272q.1.726.243,1.428c.017.086.032.173.05.258.011.05.018.1.029.152Zm1.52,2.308H8.157c0,.007.005.014.008.021q.159.474.335.918c.029.074.061.143.09.215.089.218.181.432.276.639.046.1.094.2.141.294.083.171.167.34.254.5.054.1.11.2.166.3q.127.226.26.439c.034.054.065.114.1.167a12.767,12.767,0,0,1-4.571-3.5m15,3.5c.035-.053.066-.113.1-.167q.133-.214.261-.439c.056-.1.111-.2.166-.3.087-.163.171-.332.254-.5.048-.1.1-.193.142-.294.1-.207.186-.421.275-.639.03-.072.061-.141.091-.215q.176-.445.335-.918l.008-.021h2.94a12.767,12.767,0,0,1-4.571,3.5m6.091-5.8H22.475c.011-.05.019-.1.029-.152.018-.085.033-.173.05-.258q.14-.7.243-1.428c.013-.091.028-.18.04-.272q.1-.8.162-1.618c.008-.118.014-.236.021-.354.011-.178.026-.355.033-.534H27.64A12.581,12.581,0,0,1,26.3,20.769" fill="#122b43"/>
  </g>
</svg>
